<?xml version="1.0" encoding="utf-8"?>
<!-- Generator: Adobe Illustrator 21.0.0, SVG Export Plug-In . SVG Version: 6.00 Build 0)  -->
<svg version="1.1" xmlns="http://www.w3.org/2000/svg" xmlns:xlink="http://www.w3.org/1999/xlink" x="0px" y="0px"
	 viewBox="0 0 162 72.3" style="enable-background:new 0 0 162 72.3;" xml:space="preserve">
<style type="text/css">
	.st0{fill:#FFFFFF;}
	.st1{fill:none;}
	.st2{opacity:0.8;fill:#231F20;}
	.st3{fill:#9B9B9B;}
	.st4{fill-rule:evenodd;clip-rule:evenodd;fill:#9B9B9B;}
	.st5{fill:#231F20;}
	.st6{fill:#EF4136;}
	.st7{fill:none;stroke:#EF4136;stroke-width:6;stroke-miterlimit:10;}
	.st8{fill:#58595B;}
	.st9{fill:none;stroke:#FFFFFF;stroke-width:6;stroke-miterlimit:10;}
	.st10{fill:#020202;}
	.st11{fill-rule:evenodd;clip-rule:evenodd;fill:#FFFFFF;}
	.st12{fill:#5D5D5D;}
</style>
<g id="Layer_1">
	<g>
		<g id="FAn7WZ.tif_1_">
			<g>
				<path class="st8" d="M107.9,0c0,13.6-0.1,27.1,0,40.7c0,2.1-0.2,3.8-3.2,2.8c-0.2-1-0.3-2.1-0.6-3.9c-4.3,4-9,6.4-14.7,5.8
					c-5.7-0.6-10.1-3.2-13.1-8C71.9,30.7,73,21.6,78.7,16c6.7-6.6,14.8-6.4,25.7,0.9c0-5.9,0-11.4,0-16.9C105.6,0,106.7,0,107.9,0z
					 M90.5,41.9c7.6,0.1,13.8-6,13.8-13.5c0.1-7.4-6-13.6-13.3-13.8c-7.4-0.2-13.8,6.1-13.8,13.6C77.1,35.6,83.1,41.8,90.5,41.9z"/>
				<path class="st8" d="M4.2,0c0,5.4,0,10.8,0,16.7c1.1-0.9,2-1.5,2.9-2.2c6.1-4.6,14.2-4.7,20.4-0.2c6.1,4.4,8.6,12.3,6.2,19.5
					c-2.3,6.9-8.8,11.6-16.1,11.7c-7.4,0.1-14.2-4.8-16.6-12c-0.3-1-0.7-2-1-2.9C0,20.4,0,10.2,0,0C1.4,0,2.8,0,4.2,0z M17.4,41.9
					c7.5,0,13.6-6.2,13.5-13.8c-0.1-7.4-6.2-13.5-13.5-13.5C9.9,14.6,4,20.7,3.9,28.5C3.9,35.9,9.9,41.9,17.4,41.9z"/>
				<path class="st8" d="M144.8,11c9.6,0,17.2,7.6,17.2,17.2c0,9.5-7.6,17.3-17.1,17.4c-9.5,0.1-17.5-7.9-17.4-17.5
					C127.6,18.6,135.2,11,144.8,11z M158.2,28.3c0-7.4-6.1-13.6-13.4-13.6c-7.4,0-13.5,6.1-13.5,13.6c0,7.5,6,13.5,13.4,13.5
					C152.2,41.8,158.2,35.8,158.2,28.3z"/>
				<path class="st8" d="M67.9,25.5c1.1,0,2,0,3.1,0c0.7,4.7-0.2,9-2.9,12.8c-4.5,6.4-12.6,8.9-20,6.2c-7.5-2.8-11.6-9.8-10.9-18.9
					c0.9-0.1,1.8-0.1,2.8-0.2c2.6,12.4,6.8,16.9,15.1,16.5C62.6,41.5,66.9,36.1,67.9,25.5z"/>
				<path class="st8" d="M127.5,45.6c-11.1-1.2-17.7-8.9-16.9-19c0.7-8.7,8.4-15.7,16.7-15.3c0.6,1.8,0.8,3.1-1.8,3.7
					c-7.3,1.8-11.6,7.2-11.3,13.7c0.3,6.7,4.9,11.6,12.2,13c0.3,0.1,0.6,0.2,1,0.3C127.5,43.2,127.5,44.3,127.5,45.6z"/>
			</g>
		</g>
		<g>
			<polygon class="st8" points="61.6,63.7 63.6,63.7 62.6,61.5 			"/>
			<polygon class="st8" points="126.3,63.7 128.3,63.7 127.3,61.5 			"/>
			<path class="st8" d="M1,54.1v18.1h158.2V54.1H1z M17.4,60.6h-2.3v1.6h2.2v0.9h-2.2v3.1h-1v-6.6h3.3V60.6z M30.1,66.2h-1v-6.6h1
				V66.2z M48,66.6l-4.8-5v4.6h-1v-7.1l4.8,5v-4.6h1V66.6z M64.7,66.2L64,64.6h-2.8l-0.7,1.6h-1.1l3.3-7l3.2,7H64.7z M82.9,66.6
				l-4.8-5v4.6h-1v-7.1l4.8,5v-4.6h1V66.6z M100,61.2c-0.6-0.5-1.2-0.7-1.8-0.7c-0.7,0-1.2,0.2-1.7,0.7c-0.5,0.5-0.7,1.1-0.7,1.8
				c0,0.7,0.2,1.3,0.7,1.8c0.5,0.5,1,0.7,1.7,0.7c0.4,0,0.6-0.1,0.9-0.2c0.1-0.1,0.3-0.1,0.4-0.2c0.1-0.1,0.3-0.2,0.5-0.4v1.2
				c-0.6,0.3-1.2,0.5-1.8,0.5c-0.9,0-1.7-0.3-2.4-1c-0.7-0.7-1-1.5-1-2.4c0-0.8,0.3-1.6,0.8-2.2c0.7-0.8,1.6-1.2,2.7-1.2
				c0.6,0,1.2,0.2,1.7,0.5V61.2z M112.7,66.2h-1v-6.6h1V66.2z M129.4,66.2l-0.7-1.6h-2.8l-0.7,1.6h-1.1l3.3-7l3.2,7H129.4z
				 M144.8,66.2h-2.9v-6.6h1v5.7h1.9V66.2z"/>
		</g>
	</g>
</g>
<g id="Layer_2">
</g>
<g id="Layer_3">
</g>
<g id="Layer_4">
</g>
<g id="Layer_5">
</g>
</svg>
