<?xml version="1.0" encoding="utf-8"?>
<!-- Generator: Adobe Illustrator 21.0.0, SVG Export Plug-In . SVG Version: 6.00 Build 0)  -->
<svg version="1.1" xmlns="http://www.w3.org/2000/svg" xmlns:xlink="http://www.w3.org/1999/xlink" x="0px" y="0px"
	 viewBox="0 0 143.8 81.1" style="enable-background:new 0 0 143.8 81.1;" xml:space="preserve">
<style type="text/css">
	.st0{fill:#FFFFFF;}
	.st1{fill:none;}
	.st2{opacity:0.8;fill:#231F20;}
	.st3{fill:#9B9B9B;}
	.st4{fill-rule:evenodd;clip-rule:evenodd;fill:#9B9B9B;}
	.st5{fill:#231F20;}
	.st6{fill:#EF4136;}
	.st7{fill:none;stroke:#EF4136;stroke-width:6;stroke-miterlimit:10;}
	.st8{fill:#58595B;}
	.st9{fill:none;stroke:#FFFFFF;stroke-width:6;stroke-miterlimit:10;}
	.st10{fill:#020202;}
	.st11{fill-rule:evenodd;clip-rule:evenodd;fill:#FFFFFF;}
	.st12{fill:#5D5D5D;}
</style>
<g id="Layer_1">
	<g>
		<path class="st8" d="M72.2,81c-13.8,0-27.6,0-41.4,0c-7.5,0-15,0-22.6,0c-2.1,0-4.3,0-6.4,0c-0.3,0-0.7,0-1-0.1
			c-0.7-0.2-0.9-0.6-0.7-1.3c0.1-0.3,0.1-0.6,0.1-0.9c0-9.1,0-18.3,0-27.4c0-0.5-0.1-1-0.1-1.6c-0.1-0.6,0.2-1,0.8-1
			c1.9,0,3.8,0,5.8,0c6.6,0,13.1,0,19.7,0c6.6,0,13.1,0,19.7,0c6.6,0,13.2,0,19.9,0c6.1,0,12.1,0,18.2,0c5.3,0,10.6,0,15.9,0
			c5.2,0,10.4,0,15.5,0c8.4,0,16.7,0,25.1,0c0.7,0,1.5,0,2.2-0.1c0.5-0.1,0.9,0.2,1,0.6c0.1,0.4,0.1,0.8,0.1,1.2
			c0,9.3,0,18.6,0,27.9c0,0.7,0.1,1.4,0.1,2c0,0.6-0.3,0.8-0.8,0.8c-5.1,0-10.2-0.1-15.3-0.1c-8.1,0-16.1,0-24.2,0
			C93,81,82.6,81,72.2,81L72.2,81z M88.5,68.2C88.5,68.2,88.5,68.2,88.5,68.2c0.1-0.4,0-0.7,0.1-1.1c0-0.2,0.1-0.5,0.3-0.6
			c0.7-0.6,2.5-0.3,2.9,0.5c0.5,1,1.1,2.1,1.5,3.2c0.4,1.2,1.3,1.3,2.3,1.3c0.3,0,0.8-0.3,0.9-0.5c0.1-0.3-0.2-0.7-0.4-1
			c-0.3-0.5-0.6-0.9-0.8-1.4c-0.2-0.3-0.3-0.6-0.4-0.9c-0.7-1-0.6-1.9,0.5-2.5c1-0.6,1.4-1.4,1.4-2.5c0-0.6-0.1-1.3-0.1-1.9
			c-0.1-1.1-1.3-2.5-2.4-2.7c-1.2-0.2-2.4-0.2-3.6-0.3c-1-0.1-2,0-3-0.1c-1.1-0.1-1.4,0.2-1.4,1.2c0,1,0.1,2.1,0.1,3.1
			c-0.1,2.8-0.2,5.5-0.2,8.3c0,0.3,0.3,0.8,0.6,1c0.6,0.4,1.2,0.2,1.7-0.2c0.2-0.2,0.3-0.6,0.3-1C88.7,69.5,88.6,68.8,88.5,68.2z
			 M52,71.6c0.8-0.1,1.7-0.1,2.4-0.5c2.1-1.1,3-3,3.2-5.3c0.2-1.5-0.1-2.9-0.4-4.4c-0.4-2.1-3.4-4.7-6.1-4.1
			c-2.2,0.5-3.6,1.8-4.3,3.8c-0.7,1.9-0.6,3.9-0.2,6c0.4,1.6,1.2,2.8,2.5,3.7C49.9,71.5,50.9,71.5,52,71.6z M19,71.4
			c0,0,0.1,0,0.2,0c0.4-0.1,0.9-0.2,1.1-0.5c0.3-0.4,0-0.8-0.2-1.2c-0.2-0.4-0.4-0.8-0.6-1.2c-0.2-0.5-0.4-1-0.6-1.5
			c-0.2-0.5-0.4-1-0.5-1.5c-0.2-0.5-0.3-1.1-0.5-1.6c-0.4-1.1-0.9-2.3-1.4-3.4c-0.1-0.2-0.1-0.3-0.1-0.5c-0.3-0.7-0.5-1.5-1-2.1
			c-0.7-0.9-2.3-0.6-2.7,0.3c-0.5,1.2-0.9,2.3-1.3,3.5c-0.5,1.3-0.9,2.7-1.3,4.1c-0.2,0.6-0.5,1.2-0.8,1.8c-0.3,0.8-0.6,1.6-1,2.4
			c-0.4,0.7-0.2,1.2,0.6,1.4c1.4,0.3,2.1-0.2,2.3-1.6c0-0.1,0-0.2,0-0.3c0.1-0.8,0.4-1.1,1.2-1.2c1-0.1,2-0.1,3.1-0.1
			c0.8,0,1.3,0.4,1.5,1.2c0.1,0.3,0.2,0.5,0.2,0.8C17.7,71.3,17.8,71.4,19,71.4z M30.2,62.5C30.2,62.5,30.2,62.5,30.2,62.5
			c0,1.1,0,2.2,0,3.3c0.1,1.4-0.6,2.3-1.6,3.1c-0.8,0.5-1.5,0.6-2.2,0.1c-1.3-0.9-1.9-2.1-1.8-3.7c0.1-2.2,0.1-4.4,0-6.7
			c0-0.8-0.4-1.1-1-1.1c-1,0.1-1.5,0.5-1.4,1.3c0,1.7,0.1,3.5,0.1,5.2c0,1,0,2,0.2,2.9c0.2,0.9,0.5,1.9,0.9,2.7c1,1.7,2.7,1.9,4.5,2
			c1.5,0,2.6-0.5,3.5-1.6c1-1.2,1.4-2.6,1.5-4c0.1-2.2,0-4.5,0-6.7c0-1.4-0.3-1.7-1.6-1.6c-0.7,0-1,0.3-1,1
			C30.2,59.8,30.2,61.2,30.2,62.5z M82.5,71.4c0.1,0,0.3,0,0.4,0c1-0.1,1.1-0.4,0.7-1.3c-0.2-0.4-0.4-0.8-0.6-1.2
			c-0.2-0.5-0.4-1-0.6-1.5c-0.1-0.3-0.2-0.5-0.3-0.8c-0.2-0.5-0.3-1-0.5-1.5c-0.2-0.4-0.4-0.7-0.6-1.1c-0.5-1.4-0.9-2.9-1.4-4.3
			c-0.2-0.6-0.6-1.3-1-1.8c-0.6-0.8-2.3-0.5-2.7,0.5c-0.4,1-0.7,2.1-1,3.2c-0.2,0.5-0.4,1.1-0.6,1.6c-0.5,1.2-1.1,2.5-1.5,3.7
			c-0.2,0.9-0.5,1.8-1,2.7c-0.2,0.3-0.3,0.5-0.5,0.8c-0.2,0.3-0.1,0.6,0.2,0.8c0.7,0.4,1.4,0.4,2.1,0c0.6-0.3,0.7-0.8,0.7-1.4
			c0-0.2,0-0.3,0-0.5c0-0.7,0.4-1,1-1c0.7,0,1.5,0,2.2,0c2.1-0.1,2.1-0.1,2.9,1.9C81.1,71.2,81.4,71.4,82.5,71.4z M104.3,71.3
			C104.3,71.3,104.3,71.3,104.3,71.3c1.2,0,2.4,0,3.7,0c0.3,0,0.8-0.2,0.9-0.5c0.3-0.5,0.1-1.1-0.3-1.5c-0.2-0.3-0.7-0.4-1.1-0.4
			c-1.6,0-3.1,0.1-4.7,0.1c-0.6,0-1-0.3-1.1-0.8c-0.1-0.8,0-1.7,0-2.5c0-0.2,0.4-0.5,0.6-0.5c0.8,0,1.5,0,2.3,0
			c0.9,0,1.3-0.3,1.2-1.2c-0.1-1-0.6-1.4-1.6-1.2c-0.5,0.1-0.9,0.2-1.4,0.2c-0.9-0.1-1.3-0.8-1.2-2.1c0.1-0.8,0.3-0.9,1.3-0.9
			c1.4,0,2.8,0.1,4.3,0.1c0.6,0,1.1-0.1,1.3-0.7c0.2-0.5,0-1.2-0.5-1.5c-0.3-0.2-0.8-0.2-1.2-0.2c-1.9,0-3.8,0-5.7,0
			c-1.3-0.1-1.8,0.4-1.6,1.7c0.1,0.9,0.2,1.8,0.2,2.7c0,1.8,0,3.5,0,5.3c0,0.8,0,1.7-0.2,2.5c-0.2,1.1-0.1,1.5,1.1,1.5
			C101.8,71.4,103.1,71.3,104.3,71.3z M65.6,71.5c1.6,0.3,2.7-0.7,3.8-1.7c0.5-0.5,0.5-1.1,0-1.6c-0.7-0.8-1.3-0.9-1.9-0.4
			c-0.3,0.2-0.5,0.5-0.8,0.7c-1.1,0.9-1.8,1-2.9,0.1c-1.1-0.9-1.9-1.9-1.9-3.5c0.1-1.7-0.1-3.5,1.6-4.6c1-0.7,2-0.9,2.9-0.1
			c0.8,0.7,1.7,0.9,2.7,0.4c0.7-0.3,0.8-0.7,0.3-1.3c-1.2-1.5-2.7-2.2-4.7-2.1c-1.6,0.1-4.3,1.8-4.6,3.5c-0.2,0.7-0.4,1.4-0.6,2.1
			c-0.5,2.1,0,4.1,1,6C61.6,70.9,63.4,71.8,65.6,71.5z M41.3,62.1c-0.1-1.9,0.3-2.4,1.6-2c0.3,0.1,0.7,0.1,1,0.1
			c0.6,0.1,1-0.1,1.3-0.6c0.3-0.5,0.3-1,0-1.4c-0.3-0.5-0.7-0.5-1.3-0.5c-2.5,0-5,0-7.5,0c-0.5,0-0.9-0.1-1.2,0.4
			c-0.3,0.5-0.4,1.1,0,1.6c0.3,0.5,0.8,0.5,1.3,0.4c0.2,0,0.3-0.1,0.5-0.1c1.5-0.2,2.2,0.6,2.1,2C39,63.4,39,64.9,39,66.3
			c0.1,1.3,0.1,2.6-0.3,3.8c-0.2,0.5,0,0.9,0.5,1.1c1.1,0.4,1.7,0.4,2-0.2c0.1-0.2,0.1-0.4,0.1-0.6c0-0.5-0.1-1-0.1-1.4
			C41.3,66.5,41.3,64,41.3,62.1z"/>
		<path class="st8" d="M106.2,42.5c-1.5,0-2.9,0-4.4,0c-0.3,0-0.8-0.3-0.9-0.6c-0.2-0.4-0.2-1-0.1-1.5c0.2-0.7,0.5-1.3,0.7-2
			c0.2-0.6,0.3-1.1,0.3-1.7c0.1-0.6,0.1-1.2,0.2-1.7c0.6-2.3,1.3-4.5,1.8-6.8c0.4-1.9,0.7-3.9,0.8-5.8c0.1-1.1-0.8-2-2-2
			c-0.5,0-0.9,0-1.4,0.1c-1.6,0.3-2.1,1.6-2.6,2.9c-0.3,0.6-0.4,1.3-0.6,1.9c-0.2,0.9-0.3,1.9-0.5,2.8c-0.3,1.5-0.8,2.9-1.2,4.4
			c-0.2,0.8-0.4,1.6-0.6,2.5c-0.1,0.2-0.1,0.4-0.1,0.6c-0.2,1.1-0.4,2.1-0.6,3.2c-0.2,0.9-0.5,1.8-0.7,2.7c-0.1,0.6-0.4,0.9-1,0.9
			c-2.8,0-5.5,0-8.3,0c-0.9,0-1.2-0.4-1.1-1.2c0-0.2,0.1-0.5,0.2-0.7c0.7-1.1,0.9-2.4,1-3.7c0-0.2,0.1-0.3,0.1-0.4
			c0.6-2.1,1.1-4.3,1.6-6.4c0.3-1.1,0.2-2.3,0.6-3.4c0.5-1.3,0.5-2.7,0.5-4.1c0-1.3-0.7-2-2-2.1c-0.4,0-0.7,0-1.1,0
			c-0.7,0.1-1.2,0.4-1.7,1c-1.6,2-1.8,4.5-2.3,6.9c-0.2,1.2-0.6,2.4-0.9,3.7c-0.2,0.7-0.2,1.4-0.4,2c-0.2,0.7-0.5,1.4-0.5,2.1
			c0,1.9-0.9,3.6-1.3,5.4c-0.2,0.7-0.5,0.9-1.3,0.9c-2.5,0-5-0.1-7.5-0.1c-1.1,0-1.8-0.5-1.3-1.8c0.2-0.6,0.2-1.2,0.4-1.8
			c0.2-0.8,0.4-1.6,0.6-2.4c0.2-0.8,0.4-1.7,0.6-2.5c0.1-0.3,0.1-0.6,0.2-0.9c0.5-1.2,0.6-2.4,0.8-3.7c0.2-1,0.5-1.9,0.8-2.9
			c0-0.1,0.1-0.1,0.1-0.2c0.4-2,0.8-4,1.2-6c0.1-0.7,0.4-1.4,0.6-2.1c0.2-0.9,0.4-1.7,0.6-2.6c0.2-0.9,0.4-1.9,0.7-2.8
			c0.1-0.2,0.6-0.5,0.9-0.5c1.7,0,3.4,0,5.2,0c1,0,2,0,2.9-0.1c0.5,0,0.9,0.1,1.2,0.6c0.1,0.2,0.5,0.4,0.8,0.4
			c0.4,0,0.8-0.2,1.2-0.4c1.9-0.8,3.8-1.6,5.9-1.4c2.2,0.3,4.3,0.7,5.9,2.5c0.6,0.7,1,0.7,1.8,0.2c2.2-1.5,4.8-2.2,7.4-2.8
			c1.3-0.3,2.5,0.2,3.8,0.5c2.7,0.7,4.1,2.5,4.3,5.2c0.2,2.5,0.3,5.1-0.6,7.6c-0.1,0.4-0.2,0.8-0.2,1.2c-0.1,0.6-0.1,1.3-0.3,1.9
			c-0.4,1.6-0.8,3.2-1.2,4.8c-0.6,2.3-1.2,4.5-1.7,6.8c-0.2,0.7-0.3,1.4-0.4,2.1c-0.1,0.7-0.5,0.9-1.1,0.9c-1.3,0-2.6,0-3.9,0
			C106.2,42.4,106.2,42.4,106.2,42.5z"/>
		<path class="st8" d="M19.9,29.2c-0.6,0.1-1.3,0.1-1.9,0.2c-0.2,0-0.5,0-0.7-0.1c-1.4-0.4-2.5,0.2-2.6,1.7
			c-0.1,1.5-0.5,2.9-0.9,4.3c-0.4,1.6-0.7,3.2-1.1,4.8c-0.1,0.5-0.3,1-0.4,1.5c-0.2,0.6-0.5,0.9-1.1,0.8c-2.3-0.1-4.6,0-6.9-0.1
			c-0.5,0-1,0-1.5,0c-0.9,0-1.2-0.4-1.1-1.2c0.1-0.7,0.2-1.4,0.4-2.1c0.3-1.5,0.7-3,1.1-4.6c0.5-2.2,1.1-4.3,1.6-6.5
			c0.6-2.5,1-5,1.6-7.5c0.2-1,0.6-2,0.8-3c0.5-2.2,0.9-4.5,1.5-6.7c0.3-1.2,0.6-2.4,0.7-3.7c0-0.9,0.5-1.8,0.8-2.8
			c0.1-0.4,0.1-0.9,0.2-1.4c0.1-0.7,0.5-0.9,1.1-0.9c2.9,0,5.8,0,8.7,0c3.7,0.1,7.5,0.2,11.2,0.3c2.6,0,4.6,1.3,6.5,2.8
			c1,0.9,1.9,2,2.1,3.4c0.1,0.5,0.3,1,0.4,1.4c0,0.9,0,1.7-0.1,2.6c-0.1,1-0.2,2-0.5,3c-0.3,1.3-0.7,2.5-1.2,3.7
			c-0.8,1.8-1.8,3.4-3.3,4.8c-1.5,1.5-3.2,2.6-5.1,3.4c-1.9,0.8-4,1.3-6.1,1.4c-1.3,0-2.6,0.2-4,0.3C19.9,29.2,19.9,29.2,19.9,29.2z
			 M23,11.4L23,11.4c-0.9,0-1.7,0-2.6,0c-1.1,0-1.3,0.3-1.5,1.4c-0.3,1.6-0.7,3.2-1,4.8c-0.1,0.5-0.3,1-0.4,1.6
			c-0.1,0.7,0.2,1,0.9,1c0.4,0,0.8-0.1,1.2-0.1c1.3,0,2.6,0.1,3.9-0.1c1-0.1,2-0.4,2.9-0.8c1.5-0.8,2-2.3,2.4-3.8
			c0.4-1.8-0.2-3.1-2-3.7c-0.5-0.2-1.1-0.2-1.6-0.2C24.5,11.4,23.7,11.4,23,11.4z"/>
		<path class="st8" d="M133.8,30.2c-2.3,0-4.5,0-6.8,0c-0.4,0-0.7,0-1.1-0.1c-0.7-0.1-0.9,0.1-1,0.8c-0.1,2.5,1.5,3.6,3.5,3.7
			c1.9,0.1,3.8-0.3,5.6-0.9c0.5-0.2,1-0.5,1.5-0.8c1.1-0.5,1.8-0.1,1.9,1.1c0.1,1.6,0.9,2.9,1.7,4.1c0.2,0.4,0.3,0.7-0.1,0.9
			c-0.7,0.4-1.4,0.9-2.1,1.2c-1.4,0.6-2.9,1.1-4.4,1.6c-0.9,0.3-1.8,0.5-2.7,0.6c-1.7,0.1-3.5,0-5.2,0c-2,0.1-3.7-0.9-5.3-2
			c-1.8-1.2-2.6-3-3.3-5c-0.9-2.5-0.7-5-0.1-7.5c0.1-0.5,0.2-0.9,0.3-1.4c0.1-1.8,1.1-3.2,1.7-4.7c0.8-2.1,2.2-3.8,3.7-5.4
			c0.8-0.9,1.8-1.5,2.7-2.2c0.7-0.5,1.5-0.9,2.2-1.3c1.7-0.9,3.6-1.2,5.4-1.5c1-0.2,2.1-0.3,3.2,0.2c0.5,0.2,1,0.3,1.5,0.4
			c1.8,0.4,3.4,1.2,4.5,2.7c0.7,0.9,1.2,2.1,1.6,3.2c1.1,2.6,0.8,5.3,0.2,8c-0.3,1-0.4,2.1-0.5,3.1c-0.1,0.8-0.4,1.1-1.3,1.2
			c-1.6,0-3.2,0-4.8,0C135.6,30.2,134.7,30.2,133.8,30.2C133.8,30.2,133.8,30.2,133.8,30.2z M130.5,23.5L130.5,23.5c1,0,1.9,0,2.9,0
			c0.8,0,1.1-0.4,1-1.1c0-0.5-0.1-0.9-0.2-1.3c-0.2-0.7-0.7-1.3-1.5-1.4c-2.1-0.4-4.1-0.2-5.3,1.9c-0.1,0.2-0.3,0.4-0.4,0.6
			c-0.1,0.3-0.4,0.8-0.3,1c0.1,0.2,0.6,0.4,1,0.4C128.6,23.5,129.6,23.5,130.5,23.5z"/>
		<path class="st8" d="M42.7,12.2c2.7,0,5.3,0,7.9,0c0.5,0,0.9,0.1,1.2,0.6c0.2,0.5,0.7,0.4,1.3,0.1c1.1-0.6,2.3-1.1,3.5-1.5
			c0.4-0.1,0.9-0.1,1.3,0c0.7,0.2,1.4,0.4,2.1,0.8c0.2,0.1,0.5,0.5,0.5,0.8c0,0.7-0.2,1.4-0.4,2.1c-0.2,0.7-0.4,1.4-0.6,2.1
			c-0.2,0.7-0.4,1.4-0.6,2.1c-0.2,0.9-0.3,1.8-0.5,2.7c0,0.1,0,0.2,0,0.3c-0.2,0.3-0.3,0.6-0.5,1c-0.3-0.2-0.7-0.3-0.8-0.6
			c-1.3-1.7-3-1.7-4.8-1.4c-1,0.2-1.7,0.7-2.2,1.5c-0.7,1.1-1.2,2.1-1.3,3.4c0,0.5-0.3,1-0.4,1.5c-0.1,0.4-0.3,0.9-0.3,1.3
			c0.1,1.4-0.4,2.7-0.9,4c-0.2,0.5-0.2,1-0.3,1.5c0,0.3-0.1,0.5-0.1,0.8c-0.3,1.7-0.6,3.4-1,5c-0.4,1.6-0.8,1.9-2.4,1.9
			c-2.3,0-4.6,0-6.9,0c-1,0-1.4-0.3-1.2-1.3c0.3-1.4,0.7-2.9,1.1-4.3c0.5-2.4,1-4.9,1.6-7.3c0.5-2.1,1.2-4.2,1.4-6.3
			c0.2-1.9,0.9-3.6,1.3-5.4c0.2-1.1,0.5-2.3,0.8-3.4c0.1-0.2,0.1-0.5,0.1-0.7C41.3,12.2,41.5,12.1,42.7,12.2z"/>
		<path class="st8" d="M60.7,42.4c-1.3,0-2.6,0-3.9,0c-0.8,0-1-0.2-0.9-1c0.2-1.1,0.5-2.2,0.7-3.2c0.2-0.8,0.3-1.7,0.5-2.5
			c0.3-1.3,0.7-2.6,1-3.8c0.3-1.2,0.5-2.5,0.8-3.7c0.4-2.2,0.7-4.4,1.2-6.6c0.2-1,0.7-1.9,0.8-2.9c0.2-1.9,1.2-3.7,1.1-5.7
			c0-0.6,0.4-0.9,1.2-0.9c2.1,0,4.1,0,6.2,0.1c0.8,0,1.5-0.1,2.3-0.1c0.9,0,1.3,0.5,1,1.3c-0.5,1.9-1.1,3.8-1.6,5.7
			c-0.2,0.7-0.1,1.4-0.3,2.1c-0.1,0.6-0.3,1.3-0.4,1.9c-0.2,0.8-0.4,1.6-0.7,2.4c-0.2,0.8-0.5,1.5-0.6,2.3c-0.2,1-0.3,1.9-0.4,2.9
			c-0.1,0.4-0.1,0.8-0.2,1.2c-0.3,1.2-0.6,2.3-0.9,3.5c-0.3,1-0.5,2-0.7,3c-0.2,0.8-0.3,1.7-0.5,2.5c-0.2,1-0.8,1.4-1.8,1.4
			C63.2,42.4,62,42.4,60.7,42.4C60.7,42.4,60.7,42.4,60.7,42.4z"/>
		<path class="st8" d="M68.1,10.2c-1.5,0.2-2.7-0.3-3.9-1.3C63,7.8,63,5.5,63.5,4.4c0.6-1.4,1.6-2.6,3-3.4c1.4-0.8,2.9-1.3,4.6-1
			c1.2,0.2,2.5,0.5,3.4,1.5c0.7,0.8,0.9,1.7,0.9,2.8c-0.2,2.6-1.8,4-4,5.2C70.3,10.1,69.3,10.3,68.1,10.2z"/>
		<path class="st8" d="M91,60c-0.5,0-1,0-1.5,0c-0.5,0-0.8,0.3-0.9,0.8c-0.1,0.6-0.1,1.2-0.1,1.8c0,0.8,0.4,1.3,1.2,1.4
			c1,0.1,2.1,0.1,3.1,0c0.8-0.1,1.6-0.9,1.8-1.7c0.1-0.8-0.3-1.4-1-1.9c-0.3-0.2-0.8-0.3-1.1-0.4C91.9,60,91.4,60,91,60z"/>
		<path class="st8" d="M55.1,65c0-2.1-0.1-2.4-0.7-3.5c-1.2-2.1-3.7-2.1-4.9,0c-1.3,2.2-1.1,4.5,0.3,6.6c0.5,0.8,1.4,1.4,2.4,1.1
			c0.9-0.2,1.7-0.7,2.3-1.6C54.9,66.7,55.2,65.8,55.1,65z"/>
		<path class="st8" d="M77.7,66.1c1.1,0,1.4-0.4,1.3-1.3c0-0.3-0.2-0.6-0.3-0.9c-0.2-0.5-0.4-1-0.7-1.6c-0.2-0.4-0.3-0.7-0.8-0.7
			c-0.5,0.1-0.6,0.5-0.6,0.9c0,0.8-0.2,1.5-0.5,2.3c-0.2,0.5,0.1,1.1,0.6,1.2C77.1,66,77.5,66.1,77.7,66.1z"/>
		<path class="st8" d="M91,60c0.5,0,0.9-0.1,1.4,0c0.4,0.1,0.8,0.2,1.1,0.4c0.6,0.4,1.1,1,1,1.9c-0.1,0.8-1,1.6-1.8,1.7
			c-1,0.1-2.1,0.1-3.1,0c-0.8-0.1-1.2-0.6-1.2-1.4c0-0.6,0-1.2,0.1-1.8c0.1-0.5,0.4-0.8,0.9-0.8C90,60,90.5,60,91,60z"/>
		<path class="st8" d="M55.1,65c0.1,0.8-0.2,1.7-0.7,2.6c-0.5,0.9-1.3,1.4-2.3,1.6c-1,0.2-1.9-0.4-2.4-1.1c-1.4-2.1-1.6-4.3-0.3-6.6
			c1.2-2.1,3.6-2.1,4.9,0C55,62.5,55.1,62.9,55.1,65z"/>
		<path class="st8" d="M14.3,66.1c-0.2,0-0.6,0-0.9-0.2c-0.3-0.1-0.6-0.3-0.5-0.8c0-0.1,0-0.2,0-0.3c0.2-0.9,0.4-1.9,0.6-2.8
			c0.1-0.5,0.4-0.6,0.7-0.2c0.8,0.9,1.3,2,1.4,3.2C15.7,65.7,15.1,66.1,14.3,66.1z"/>
	</g>
</g>
<g id="Layer_2">
</g>
<g id="Layer_3">
</g>
<g id="Layer_4">
</g>
<g id="Layer_5">
</g>
</svg>
