<?xml version="1.0" encoding="utf-8"?>
<!-- Generator: Adobe Illustrator 19.2.0, SVG Export Plug-In . SVG Version: 6.00 Build 0)  -->
<svg version="1.1" id="Layer_1" xmlns="http://www.w3.org/2000/svg" xmlns:xlink="http://www.w3.org/1999/xlink" x="0px" y="0px"
	 viewBox="0 0 612 108" style="enable-background:new 0 0 612 108;" xml:space="preserve">
<style type="text/css">
	.st0{fill:#58595B;}
</style>
<g>
	<path class="st0" d="M429.2,87.6c13.1-19.5,26.1-38.6,39-57.7c0.1,0,0.2,0.1,0.3,0.1c0,0.2,0.1,0.3,0.1,0.5
		c0.1,12.5,0.1,25.1,0.1,37.6c0,0.9-0.1,1.7-0.2,2.6c-0.1,0.8,0.3,1.2,1.1,1.2c2.9,0,5.9,0,8.8,0c0.8,0,1.2-0.4,1.2-1.2
		c0-3.7,0-7.3,0-11c0-0.2-0.1-0.5-0.1-0.7c-0.2-1,0.1-1.3,1.1-1.3c2.5,0,4.9,0.1,7.4,0c5.4-0.1,10.4-1.6,14.3-5.5
		c3.5-3.5,4.7-8,4.4-12.8c-0.3-4.3-2-8.1-5.4-11c-3-2.6-6.7-3.9-10.6-4.2c-4.7-0.3-9.4-0.2-14.1-0.2c-1,0-2.1,0.1-3.1,0.1
		c-0.3,0-0.6-0.2-0.9-0.2c0.1-0.3,0.1-0.6,0.3-0.9c2.7-4,5.6-8,8.2-12.1c1.2-1.9,2.5-2.5,4.7-2.5c34.3,0.1,68.7,0.1,103,0.1
		c1.1,0,2.1,0,3.4,0c-0.2,0.5-0.3,0.9-0.5,1.3c-4.9,7.3-9.9,14.7-14.9,22c-4.3,6.4-8.6,12.8-13,19.2c-3.6,5.3-7.1,10.5-10.7,15.8
		c-0.5,0.8-0.8,0.8-1.3,0c-2.5-3.6-5-7.3-7.5-10.9c-0.6-0.8-0.2-1.1,0.5-1.5c3.7-1.7,6.5-4.3,7.9-8.2c1.2-3.2,1.3-6.5,0.7-9.8
		c-1.2-6-4.9-9.6-10.6-11.3c-2.5-0.7-5.1-1.1-7.7-1.1c-5.8,0.1-11.6,0-17.5,0c-0.8,0-1.6,0-2.5,0c-1.1,0-1.4,0.3-1.5,1.4
		c0,1.6,0,3.3,0,4.9c0,12.7,0,25.3,0,38c0,0.9,0,1.7-0.1,2.6c0,0.8,0.3,1.2,1.1,1.2c2.9,0,5.9,0,8.8,0c0.8,0,1.2-0.3,1.2-1.3
		c-0.1-4.2,0-8.5-0.1-12.7c0-1.2,0.2-1.4,1.4-1.4c1.6,0,3.2,0.1,4.8,0c1.1-0.1,1.8,0.4,2.4,1.2c1.8,2.7,3.6,5.3,5.4,8
		c2.4,3.5,4.7,7,7,10.5c0.3,0.5,0.4,0.9,0,1.5c-2,2.9-4,5.9-6,8.9c-0.5,0.7-1.1,1-1.9,1c-34.2,0-68.3,0-102.5,0
		C433.3,87.6,431.4,87.6,429.2,87.6z"/>
	<path class="st0" d="M219,27.4c3.8,0.2,7.7,0.1,11.4,0.7c4.8,0.7,8.6,4,9.3,9.2c0.9,6.2-3.1,10.8-8.7,12.2
		c-1.4,0.3-1.5,0.6-0.6,1.8c2.8,3.6,5.5,7.3,8.3,10.9c0.5,0.7,1.1,1.3,1.7,2c0.2,0.2,0.3,0.6,0.2,0.9c-0.1,0.2-0.5,0.3-0.8,0.3
		c-0.9,0-1.9,0.1-2.8-0.1c-0.7-0.1-1.5-0.5-1.9-1c-3.1-4-6.2-8.1-9.3-12.2c-0.8-1.1-1.7-1.6-3.1-1.5c-2.5,0.2-5,0.1-7.5,0.1
		c-1.1,0-1.4,0.3-1.4,1.4c0,3.3,0.1,6.6,0.1,9.9c0,0.7,0.1,1.4,0.1,2.2c0,0.9-0.5,1.3-1.4,1.2c-0.4,0-0.7-0.1-1.1-0.1
		c-1.8,0.1-1.9-0.1-1.9-2c0.1-4,0-7.9,0-11.9c0-7,0-13.9,0-20.9c0-0.2,0-0.4,0-0.7c-0.1-2.2-0.1-2.2,2.2-2.2c2.3,0,4.6,0,6.9,0
		C219,27.5,219,27.4,219,27.4z M213.9,39.1c0,2,0,4,0,6.1c0,1.3,0.3,1.6,1.6,1.6c3.6,0,7.2,0.1,10.8-0.1c1.5,0,3-0.3,4.3-0.8
		c2.2-0.9,3.9-2.4,4.6-4.9c1.5-5.4-2.8-9.2-6.8-9.3c-4.5-0.1-9-0.1-13.4-0.2c-0.9,0-1,0.6-1,1.3C213.9,34.9,213.9,37,213.9,39.1z"/>
	<path class="st0" d="M109.7,51.2c0-4.2,0-8.4,0-12.6c0-0.9,0.4-1.3,1.3-1.3c0.5,0,1.1,0,1.6,0c1.1,0,1.5,0.5,1.3,1.6
		c-0.1,0.4-0.2,0.8-0.2,1.2c0,0.3,0.2,0.9,0.4,0.9c0.3,0,0.8-0.2,1-0.4c1-1.5,2.4-2.5,4.1-3.1c3.9-1.4,9.4-0.6,11.9,3.6
		c0.5,0.9,1.1,0.9,1.8-0.1c1.7-2.2,3.8-3.6,6.5-4c4.8-0.7,8.8,0.3,11.3,4.7c1,1.7,1.4,3.6,1.4,5.6c0,5.5,0,11,0,16.5
		c0,1.2-0.4,1.5-1.6,1.5c-2.6-0.2-2.6-0.2-2.6-2.7c0-4.7,0.1-9.3,0-14c-0.1-3.3-1.1-6.1-4.5-7.5c-4.7-1.9-10.3,1.6-10.4,6.8
		c-0.1,5.3-0.1,10.7-0.1,16c0,1.1-0.3,1.4-1.4,1.4c-2.6-0.1-2.6-0.1-2.6-2.7c0-4.9,0-9.8-0.1-14.7c-0.1-2.8-1.3-5.2-3.9-6.5
		c-3.5-1.8-8.2-0.2-9.9,3.4c-0.8,1.8-1.2,3.6-1.2,5.5c0.1,4.6,0.1,9.1,0.1,13.7c0,1.2-0.3,1.4-1.5,1.4c-3,0-2.7,0.1-2.7-2.8
		C109.8,58.7,109.8,54.9,109.7,51.2C109.7,51.2,109.7,51.2,109.7,51.2z"/>
	<path class="st0" d="M42.8,58.6c0,1.8,0,3.5,0,5.3c0,0.9-0.4,1.3-1.3,1.4c0,0-0.1,0-0.1,0c-3,0.1-3,0.1-3-2.9c0-10.7,0-21.5,0-32.2
		c0-2.6,0-2.6,2.6-2.6c3.9,0,7.9,0,11.8,0c2.9,0,5.7,0.6,8.4,2c4.3,2.2,6.7,8.7,5,13.5c-1.8,5.1-5.5,7.8-10.6,8.5
		c-3.7,0.5-7.6,0.3-11.4,0.3c-1.6,0-1.8,0.3-1.7,1.8c0.1,1.6,0,3.2,0,4.9C42.7,58.6,42.7,58.6,42.8,58.6z M42.6,40.4
		C42.6,40.4,42.6,40.4,42.6,40.4c0,2.1,0,4.2,0,6.3c0,1.1,0.3,1.5,1.5,1.5c2.5,0,5,0,7.5,0c2.9,0,5.7-0.3,8-2.3
		c2.5-2.1,3.5-5.4,2.5-8.7c-0.8-2.8-3.9-5.2-7-5.4c-3.8-0.2-7.6-0.1-11.4-0.2c-0.9,0-1.2,0.5-1.2,1.3C42.6,35.3,42.6,37.8,42.6,40.4
		z"/>
	<path class="st0" d="M174.7,52.7c-3.2,0-6.4,0-9.6,0c-1.3,0-1.6,0.4-1.3,1.6c1,3.6,3,6.5,6.7,7.5c3.9,1.1,7.5,0.3,10.5-2.5
		c1.2-1.1,1.2-1.1,2.4-0.1c0.3,0.2,0.6,0.5,0.8,0.7c0.5,0.5,0.5,0.9,0,1.4c-3.1,3-6.8,4.7-11.2,4.5c-7.7-0.3-12.3-5.3-13.5-11.9
		c-1-5.7,1.4-12.6,6.8-15.6c6.6-3.6,16-1.6,18.6,7.6c0.5,1.7,0.7,3.5,0.9,5.3c0.1,1.2-0.2,1.5-1.4,1.5c-3.3,0-6.5,0-9.8,0
		C174.7,52.8,174.7,52.8,174.7,52.7z M172.6,49.9c2.6,0,5.1,0,7.7,0c1.1,0,1.5-0.4,1.2-1.5c-0.4-1.4-0.8-2.8-1.5-4
		c-2.3-4.1-7.2-5.3-11.3-3c-2.7,1.5-3.9,4-4.8,6.8c-0.4,1.4-0.1,1.8,1.3,1.8C167.7,49.9,170.1,49.9,172.6,49.9z"/>
	<path class="st0" d="M261.2,52.8c-3.2,0-6.4,0-9.5,0c-1.5,0-1.7,0.4-1.3,1.8c0.7,2.3,1.7,4.4,3.7,5.8c4,3,10.1,2.5,13.6-1
		c1.1-1.1,1.1-1.1,2.3,0c0.2,0.1,0.3,0.3,0.5,0.4c1,0.8,1,1.2,0,2c-1.3,1-2.6,2.2-4.1,2.8c-6.8,3-15.4,1.2-19-6.6
		c-1.6-3.4-1.8-7.1-0.9-10.8c1-3.8,3.1-6.9,6.5-8.8c5.8-3.1,14.1-2.1,17.8,5.5c1.2,2.4,1.5,5.1,1.6,7.8c0,1.1-0.7,1.2-1.5,1.2
		c-3.2,0-6.4,0-9.6,0C261.2,52.8,261.2,52.8,261.2,52.8z M259.1,49.9C259.1,49.9,259.1,49.9,259.1,49.9c2.5,0,5.1,0,7.6,0
		c1.3,0,1.6-0.5,1.3-1.7c-0.2-0.8-0.5-1.6-0.8-2.4c-1.9-5.5-8.5-7.4-13-3.9c-2,1.6-3.1,3.7-3.8,6c-0.5,1.4-0.2,1.9,1.3,1.9
		C254.1,49.9,256.6,49.9,259.1,49.9z"/>
	<path class="st0" d="M404,52.8c-3.2,0-6.4,0-9.5,0c-1.3,0-1.6,0.4-1.2,1.6c1,3.6,3,6.4,6.7,7.4c4.1,1.2,7.8,0.3,10.9-2.8
		c0.6-0.6,1-0.5,1.6-0.1c2.2,1.8,2.1,1.7,0,3.6c-2.7,2.3-5.9,3.4-9.5,3.4c-7-0.1-12.2-4-13.7-11c-1-4.7-0.2-9.4,2.9-13.3
		c2.7-3.3,6.2-4.8,10.4-4.8c7.6,0,12.1,6.4,12.4,11.8c0,0.9,0.2,1.9,0.3,2.8c0.1,1.1-0.3,1.4-1.4,1.4c-3.3,0-6.6,0-9.9,0
		C404,52.8,404,52.8,404,52.8z M402,49.9C402,49.9,402,49.9,402,49.9c2.6,0,5.1,0,7.7,0c1.1,0,1.5-0.4,1.3-1.5
		c-0.2-0.8-0.4-1.6-0.7-2.4c-2-5.7-8.5-7.6-13.2-4c-2,1.5-3,3.7-3.8,5.9c-0.5,1.4-0.2,1.9,1.3,1.9C397,49.9,399.5,49.9,402,49.9z"/>
	<path class="st0" d="M320.2,52.8c-3.3,0-6.5,0-9.8,0c-1.2,0-1.5,0.4-1.2,1.4c0.9,3,2.4,5.5,5.3,7c3.7,2,9.2,1.1,12.1-1.9
		c1-1.1,1.1-1.1,2.2-0.1c1.8,1.6,1.7,1.5-0.1,3.1c-2.7,2.4-5.9,3.5-9.5,3.5c-7.2,0-12.8-4.6-13.9-11.7c-0.7-4.4,0-8.6,2.8-12.3
		c2.6-3.6,6.3-5.1,10.7-5.1c6.4,0,10.6,4.2,12.1,9.6c0.5,1.7,0.5,3.5,0.6,5.2c0.1,1-0.5,1.2-1.4,1.2c-3.2,0-6.5,0-9.7,0
		C320.2,52.8,320.2,52.8,320.2,52.8z M318.1,49.9C318.1,49.9,318.1,49.9,318.1,49.9c2.5,0,5.1,0,7.6,0c1.2,0,1.6-0.5,1.3-1.6
		c-0.3-1-0.6-2.1-1.1-3.1c-1.6-3-4-5-7.5-5c-3.4,0-6,1.6-7.7,4.6c-0.6,1-1,2.2-1.4,3.3c-0.5,1.3-0.2,1.8,1.2,1.8
		C313.1,49.9,315.6,49.9,318.1,49.9z"/>
	<path class="st0" d="M578.3,61.8c1.4,0,2.7,0,4.1,0c0.9,0,1.3-0.4,1.3-1.3c-0.1-2.6-0.1-5.2-0.2-7.8c0-0.9,0.4-1.2,1.2-1.2
		c1.3,0,2.5,0,3.8-0.1c0.9,0,1.3,0.4,1.3,1.3c-0.1,2.6-0.1,5.2-0.2,7.8c0,0.9,0.3,1.3,1.4,1.3c2.6,0,5.1,0,7.7,0
		c1.3,0,1.4,0.2,1.4,1.4c0,1,0,2,0,3c0,1.1-0.2,1.4-1.3,1.4c-2.6,0-5.1,0-7.7,0c-1.3,0-1.5,0.2-1.4,1.6c0.1,2.6,0.1,5.1,0.1,7.7
		c0,0.8-0.5,1.1-1.2,1.1c-1.3,0-2.5,0-3.8,0c-1,0-1.3-0.5-1.3-1.4c0.1-2.6,0.1-5.3,0.1-7.9c0-0.9-0.6-1.1-1.3-1.1
		c-2.5,0-5.1,0-7.6,0c-1.6,0-1.7-0.1-1.7-1.7c0-1,0-2,0-3c0-0.8,0.3-1.1,1.1-1.1C575.5,61.8,576.9,61.8,578.3,61.8z"/>
	<path class="st0" d="M289.3,65.8c-4.4,0-7.9-1.3-11.1-3.4c-0.8-0.5-1-1-0.3-1.7c0.5-0.5,0.9-1.5,1.5-1.6c0.5-0.1,1.3,0.5,1.9,0.9
		c2.2,1.3,4.5,2.2,7,2.4c1.9,0.1,3.7-0.2,5.2-1.5c2.1-1.9,2-4.6-0.5-5.9c-2.2-1.1-4.6-1.7-6.9-2.6c-1.6-0.6-3.2-1.2-4.6-2.1
		c-1.6-1-2.6-2.4-2.8-4.4c-0.4-3.7,1.4-6.7,4.9-8.1c3.9-1.5,7.7-0.8,11.5,0.6c0.8,0.3,1.6,0.7,2.3,1.1c0.6,0.3,0.7,0.9,0.3,1.4
		c-0.2,0.2-0.4,0.4-0.5,0.7c-1,1.5-1,1.4-2.6,0.6c-2.7-1.4-5.5-2.4-8.6-1.6c-1.5,0.4-2.7,1.2-3.2,2.8c-0.4,1.2-0.2,2.4,0.8,3.1
		c1.4,0.9,2.9,1.7,4.5,2.3c2.4,1,4.9,1.6,7.2,2.8c5,2.6,4.4,9.1,0.4,12.1C293.7,65.3,291.3,65.8,289.3,65.8z"/>
	<path class="st0" d="M360.1,37.3c0.5,0,1-0.1,1.4,0c0.5,0.2,1.1,0.5,1.3,0.9c2.5,6.1,5,12.2,7.5,18.3c0.3,0.7,0.4,1.5,0.7,2.2
		c0.1,0.3,0.5,0.8,0.7,0.8c0.3,0,0.8-0.4,0.9-0.7c0.8-2,1.6-4,2.4-6c1.5-3.7,3-7.5,4.5-11.2c0.5-1.2,0.9-2.4,1.5-3.5
		c0.2-0.4,0.8-0.7,1.3-0.8c0.7-0.1,1.5-0.1,2.3-0.1c0.9,0,1.2,0.4,0.8,1.2c-1.3,3-2.6,5.9-3.9,8.9c-2.3,5.2-4.5,10.4-6.7,15.7
		c-0.1,0.3-0.2,0.5-0.4,0.8c-0.8,1.6-2.1,2.2-3.9,1.6c-0.5-0.2-0.9-0.7-1.1-1.2c-2.8-6.6-5.6-13.2-8.5-19.8
		c-0.8-1.9-1.7-3.7-2.6-5.6c-0.2-0.4-0.4-0.9-0.2-1.2c0.1-0.2,0.7-0.3,1.1-0.3C359.6,37.3,359.8,37.4,360.1,37.3
		C360.1,37.4,360.1,37.3,360.1,37.3z"/>
	<path class="st0" d="M532,33.9c1.2,0.1,3.3,0,5.4,0.3c3.2,0.5,5.3,2.8,5.4,5.6c0.1,3.7-1.5,6-4.9,6.9c-1.1,0.3-2.2,0.4-3.3,0.4
		c-2.9,0-5.7,0-8.6,0c-1.1,0-1.4-0.5-1.3-1.6c0.1-0.6,0.1-1.2,0.1-1.8c0-2.9,0-5.8-0.1-8.7c0-0.9,0.4-1.1,1.2-1.1
		C527.5,33.9,529.3,33.9,532,33.9z"/>
	<path class="st0" d="M479.4,40.7c0-1.9,0-3.8,0-5.7c0-0.3,0.5-0.9,0.7-0.9c3.3,0,6.7-0.1,9.9,0.3c3.2,0.4,5.3,3.1,5.5,6.2
		c0.2,3-1.8,6.2-4.7,6.9c-2.3,0.5-4.8,0.4-7.2,0.5c-1,0.1-2,0-3,0c-0.8,0-1.3-0.3-1.3-1.2C479.4,44.7,479.3,42.7,479.4,40.7
		C479.4,40.7,479.4,40.7,479.4,40.7z"/>
	<path class="st0" d="M73.7,51.1c0-4.2,0-8.3,0-12.5c0-1,0.4-1.4,1.4-1.3c0.4,0,0.7,0,1.1,0c1.7,0,1.8,0.1,1.8,1.9
		c0,1-0.2,1.9-0.2,2.9c0,0.4,0.3,0.7,0.5,1.1c0.3-0.2,0.7-0.3,0.9-0.6c2-3.3,4.9-5.1,8.6-5.6c1.3-0.2,1.5,0,1.5,1.3
		c0,0.7,0,1.4,0,2.1c0,0.8-0.3,1.2-1.2,1.2c-3.9,0.2-6.9,2-8.6,5.6c-0.9,1.8-1.4,4-1.5,6c-0.2,3.5-0.1,7.1,0,10.6
		c0,1.4-0.2,1.6-1.6,1.5c-2.6-0.1-2.6-0.1-2.6-2.7C73.8,58.7,73.8,54.9,73.7,51.1C73.8,51.1,73.7,51.1,73.7,51.1z"/>
	<path class="st0" d="M343.1,43.3c0.3-0.2,0.7-0.4,0.9-0.7c1.9-3.2,4.7-5,8.3-5.7c1.7-0.3,2,0,1.9,1.6c0,0.8,0.2,1.9-0.3,2.4
		c-0.4,0.5-1.5,0.4-2.3,0.6c-4.6,1-8.1,4.4-8.6,10.2c-0.4,4-0.1,8-0.2,12c0,1.3-0.2,1.5-1.5,1.5c-0.5,0-1.1,0-1.6,0
		c-0.8,0-1.1-0.5-1.1-1.3c0.1-5.4,0.1-10.8,0.2-16.1c0-3.1-0.1-6.2-0.1-9.3c0-0.8,0.3-1.2,1.1-1.2c0.5,0,1.1,0,1.6,0
		c1.2,0,1.5,0.3,1.5,1.5c-0.1,1.4-0.1,2.8-0.2,4.2C342.8,43.1,342.9,43.2,343.1,43.3z"/>
	<path class="st0" d="M100.3,51.3c0,4.2,0,8.3,0,12.5c0,1.3-0.4,1.6-1.6,1.5c-0.1,0-0.1,0-0.2,0c-2.3-0.2-2.3-0.2-2.3-2.6
		c0-8,0-16,0-24c0-1.2,0.1-1.4,1.3-1.4c2.9,0,2.9-0.4,2.8,2.9C100.2,43.9,100.3,47.6,100.3,51.3C100.3,51.3,100.3,51.3,100.3,51.3z"
		/>
	<path class="st0" d="M42.6,94.4c-0.3,0-0.7,0-1,0c-0.9-0.1-1.3,0.4-1.3,1.3c0.1,0.9,0.1,1.7,0.2,2.6c0.1,0.7-0.2,1.1-0.9,1.1
		c-0.1,0-0.3,0-0.4,0c-1.8,0-1.8,0-1.7-1.8c0-4.4-0.1-8.8-0.1-13.2c0-0.8,0.3-1.1,1.1-1.1c1.7,0.1,3.4,0.3,5.1,0.1
		c1.3-0.1,2.4,0.1,3.5,0.5c1.7,0.6,2.8,2.4,2.9,4.2c0.4,4.4-3,6.1-6.1,6.3C43.4,94.4,43,94.4,42.6,94.4
		C42.6,94.4,42.6,94.4,42.6,94.4z M42.9,91.8c0.3,0,0.6,0,1,0c1.6-0.1,3.1-1.4,3.2-2.9c0.1-1.2-1-2.5-2.5-2.8
		c-0.8-0.2-1.7-0.2-2.6-0.2c-1.2,0-1.5,0.4-1.5,1.6c0,0.9,0,1.8,0,2.7c0,1.2,0.3,1.6,1.6,1.6C42.3,91.8,42.6,91.8,42.9,91.8z"/>
	<path class="st0" d="M90.3,89.1c0,1.4,0,2.9,0,4.3c0,1.9,1.5,3.4,3.2,3.6c2.9,0.2,4.4-1.4,4.5-3.2c0.2-3.1,0.1-6.2,0.1-9.3
		c0-0.6,0.1-1.1,0.9-1.2c1.9-0.2,2,0.1,1.9,2c-0.1,2.4,0,4.8,0.1,7.2c0.1,3.7-2,6.9-6,7.1c-1.3,0-2.6,0-3.8-0.4
		c-2.5-0.8-4-3.1-4-5.8c0-3,0-5.9,0-8.9c0-1.2,0.7-1.2,1.6-1.2c0.9,0,1.6,0.1,1.5,1.2C90.2,86,90.3,87.6,90.3,89.1
		C90.3,89.1,90.3,89.1,90.3,89.1z"/>
	<path class="st0" d="M115.4,95.3c1.5,0.7,2.7,1.4,4,1.7c1,0.2,2.2-0.1,3.2-0.4c0.4-0.1,0.6-1,0.8-1.6c0.2-0.7-0.3-1.2-1-1.5
		c-1.1-0.4-2.2-0.7-3.2-1.1c-1.9-0.6-3.7-1-4.6-3.2c-0.6-1.6,0-4,1.5-5.1c2.1-1.4,4.3-1.4,6.6-0.7c0.7,0.2,1.4,0.5,2.1,0.8
		c0.6,0.3,1,0.6,0.4,1.3c-0.2,0.2-0.3,0.5-0.5,0.7c-0.4,0.6-0.9,0.7-1.6,0.3c-1.3-0.8-2.8-1.4-4.4-0.8c-0.5,0.2-1.1,0.7-1.4,1.2
		c-0.3,0.7-0.1,1.6,0.7,2c0.9,0.4,1.9,0.8,2.9,1.1c0.8,0.3,1.7,0.5,2.5,0.8c2.2,0.8,3,3,2.9,4.2c-0.2,2-2,4-3.8,4.3
		c-2.8,0.5-5.3,0-7.7-1.5c-1-0.6-1.1-0.8-0.2-1.7C115,95.9,115.2,95.5,115.4,95.3z"/>
	<path class="st0" d="M63.3,91.4c0-2.3,0-4.6,0-6.9c0-0.8,0.2-1.2,1.2-1.2c1.7,0.1,2,0.2,2.1,1.2c0,1.9,0.1,3.7,0.1,5.6
		c0,1.8-0.1,3.6-0.2,5.4c0,1,0.4,1.4,1.3,1.3c2,0,4,0,6-0.1c1.1,0,1.2,0.5,1.2,1.3c0,0.8,0.1,1.4-1.1,1.4c-3.1-0.1-6.3,0-9.4,0
		c-0.8,0-1.1-0.2-1.1-1.1C63.4,96,63.3,93.7,63.3,91.4C63.3,91.4,63.3,91.4,63.3,91.4z"/>
	<path class="st0" d="M98.3,26.7c0.1,0,0.2,0,0.3,0c2-0.1,2.1,0,2,2c-0.1,2.6-0.1,2.6-2.6,2.6c-0.3,0-0.6,0-0.9,0
		c-0.9,0-1.3-0.4-1.3-1.3c0-0.3,0.1-0.6,0.1-1C96,26.8,96,26.8,98.3,26.7z"/>
</g>
</svg>
