<?xml version="1.0" encoding="utf-8"?>
<!-- Generator: Adobe Illustrator 21.0.0, SVG Export Plug-In . SVG Version: 6.00 Build 0)  -->
<svg version="1.1" xmlns="http://www.w3.org/2000/svg" xmlns:xlink="http://www.w3.org/1999/xlink" x="0px" y="0px"
	 viewBox="0 0 41.5 29.7" style="enable-background:new 0 0 41.5 29.7;" xml:space="preserve">
<style type="text/css">
	.st0{fill:#FFFFFF;}
	.st1{fill:none;}
	.st2{opacity:0.8;fill:#231F20;}
	.st3{fill:#9B9B9B;}
	.st4{fill-rule:evenodd;clip-rule:evenodd;fill:#9B9B9B;}
	.st5{fill:#231F20;}
	.st6{fill:#EF4136;}
	.st7{fill:none;stroke:#EF4136;stroke-width:6;stroke-miterlimit:10;}
	.st8{fill:#58595B;}
	.st9{fill:none;stroke:#FFFFFF;stroke-width:6;stroke-miterlimit:10;}
	.st10{fill:#020202;}
	.st11{fill-rule:evenodd;clip-rule:evenodd;fill:#FFFFFF;}
	.st12{fill:#5D5D5D;}
</style>
<g id="Layer_1">
	<path class="st0" d="M38,0H3.5C1.6,0,0,1.6,0,3.5v22.7c0,1.9,1.6,3.5,3.5,3.5H38c1.9,0,3.5-1.6,3.5-3.5V3.5C41.5,1.6,39.9,0,38,0z
		 M20.8,16.8L6.2,3.6l28.9-0.1L20.8,16.8z M13.5,15l-10,9.3V6L13.5,15z M16.2,17.5l4.7,4.2l4.4-4.2l9.5,8.6l-28,0.1L16.2,17.5z
		 M27.9,15.1l10-9.4L38,24.2L27.9,15.1z"/>
</g>
<g id="Layer_2">
</g>
<g id="Layer_3">
</g>
<g id="Layer_4">
</g>
<g id="Layer_5">
</g>
</svg>
