<?xml version="1.0" encoding="utf-8"?>
<!-- Generator: Adobe Illustrator 21.0.0, SVG Export Plug-In . SVG Version: 6.00 Build 0)  -->
<svg version="1.1" xmlns="http://www.w3.org/2000/svg" xmlns:xlink="http://www.w3.org/1999/xlink" x="0px" y="0px"
	 viewBox="0 0 26 33.4" style="enable-background:new 0 0 26 33.4;" xml:space="preserve">
<style type="text/css">
	.st0{fill:#FFFFFF;}
	.st1{fill:none;}
	.st2{opacity:0.8;fill:#231F20;}
	.st3{fill:#9B9B9B;}
	.st4{fill-rule:evenodd;clip-rule:evenodd;fill:#9B9B9B;}
	.st5{fill:#231F20;}
	.st6{fill:#EF4136;}
	.st7{fill:none;stroke:#EF4136;stroke-width:6;stroke-miterlimit:10;}
	.st8{fill:#58595B;}
	.st9{fill:none;stroke:#FFFFFF;stroke-width:6;stroke-miterlimit:10;}
	.st10{fill:#020202;}
	.st11{fill-rule:evenodd;clip-rule:evenodd;fill:#FFFFFF;}
	.st12{fill:#5D5D5D;}
</style>
<g id="Layer_1">
</g>
<g id="Layer_2">
</g>
<g id="Layer_3">
</g>
<g id="Layer_4">
	<g>
		<g>
			<path class="st0" d="M8.8,10.1c0,0.1,0.1,0.1,0.2,0.1l2.5-0.6c0.1,0,0.1,0,0.1-0.1s0-0.1,0-0.1L9.5,0.2c0-0.1,0-0.1-0.1-0.1
				c0,0-0.1,0-0.1,0L6.8,0.6c-0.1,0-0.1,0-0.1,0.1c0,0,0,0.1,0,0.1L8.8,10.1C8.7,10.1,8.8,10.1,8.8,10.1z"/>
			<path class="st0" d="M22.7,32.6l-6.3-6.4c-0.1-0.1-0.2-0.1-0.2,0l-0.8,0.5c-1,0.5-3,0.5-3.6-0.6L5.4,14.3
				c-0.6-1.1,0.4-2.8,1.4-3.3l0.8-0.5c0.1,0,0.1-0.1,0.1-0.2l-2-8.7c0-0.1-0.1-0.1-0.1-0.1c-0.1,0-0.2,0-0.2,0.1
				C5.3,1.7,1.5,6.3,0.7,8.1c-1.6,3.8-0.7,8.8,2.7,14.9l0,0.1c3.3,6.1,7.1,9.5,11.1,10.3c2,0.4,7.8-0.4,8.1-0.4
				c0.1,0,0.1-0.1,0.2-0.1C22.8,32.7,22.8,32.7,22.7,32.6z"/>
			<path class="st0" d="M26,30.4c0,0,0.1-0.1,0.1-0.1c0-0.1,0-0.1-0.1-0.1l-6.7-6.7c0,0-0.1-0.1-0.1-0.1c-0.1,0-0.1,0-0.1,0.1
				l-1.8,1.8c-0.1,0.1-0.1,0.2,0,0.2c0,0,0,0,0,0l6.7,6.7c0,0,0.1,0.1,0.1,0.1c0.1,0,0.1,0,0.1-0.1L26,30.4z"/>
		</g>
	</g>
</g>
<g id="Layer_5">
</g>
</svg>
