<?xml version="1.0" encoding="utf-8"?>
<!-- Generator: Adobe Illustrator 21.0.0, SVG Export Plug-In . SVG Version: 6.00 Build 0)  -->
<svg version="1.1" xmlns="http://www.w3.org/2000/svg" xmlns:xlink="http://www.w3.org/1999/xlink" x="0px" y="0px"
	 viewBox="0 0 30.7 27.2" style="enable-background:new 0 0 30.7 27.2;" xml:space="preserve">
<style type="text/css">
	.st0{fill:#FFFFFF;}
	.st1{fill:none;}
	.st2{opacity:0.8;fill:#231F20;}
	.st3{fill:#9B9B9B;}
	.st4{fill-rule:evenodd;clip-rule:evenodd;fill:#9B9B9B;}
	.st5{fill:#231F20;}
	.st6{fill:#EF4136;}
	.st7{fill:none;stroke:#EF4136;stroke-width:6;stroke-miterlimit:10;}
	.st8{fill:#58595B;}
	.st9{fill:none;stroke:#FFFFFF;stroke-width:6;stroke-miterlimit:10;}
	.st10{fill:#020202;}
	.st11{fill-rule:evenodd;clip-rule:evenodd;fill:#FFFFFF;}
	.st12{fill:#5D5D5D;}
</style>
<g id="Layer_1">
	<g>
		<path class="st0" d="M16,27.2c-0.3,0-0.5-0.1-0.8-0.2c-0.7-0.3-1.2-1-1.2-1.8V20c-5.6,0.3-8.9,1.8-10.2,4.7
			c-0.4,0.9-1.3,1.3-2.2,1.2c-0.9-0.2-1.6-1-1.6-2C0,14.8,5.7,8.2,14,7.4V2c0-0.8,0.5-1.5,1.2-1.8c0.7-0.3,1.6-0.2,2.2,0.4L30,12.1
			c0.4,0.4,0.7,0.9,0.7,1.5c0,0.6-0.2,1.1-0.7,1.5L17.4,26.6C17,27,16.5,27.2,16,27.2z"/>
	</g>
</g>
<g id="Layer_2">
</g>
<g id="Layer_3">
</g>
<g id="Layer_4">
</g>
<g id="Layer_5">
</g>
</svg>
