<?xml version="1.0" encoding="utf-8"?>
<!-- Generator: Adobe Illustrator 21.0.0, SVG Export Plug-In . SVG Version: 6.00 Build 0)  -->
<svg version="1.1" xmlns="http://www.w3.org/2000/svg" xmlns:xlink="http://www.w3.org/1999/xlink" x="0px" y="0px"
	 viewBox="0 0 202.5 135" style="enable-background:new 0 0 202.5 135;" xml:space="preserve">
<style type="text/css">
	.st0{fill:#FFFFFF;}
	.st1{fill:none;}
	.st2{opacity:0.8;fill:#231F20;}
	.st3{fill:#9B9B9B;}
	.st4{fill-rule:evenodd;clip-rule:evenodd;fill:#9B9B9B;}
	.st5{fill:#231F20;}
	.st6{fill:#EF4136;}
	.st7{fill:none;stroke:#EF4136;stroke-width:6;stroke-miterlimit:10;}
	.st8{fill:#58595B;}
	.st9{fill:none;stroke:#FFFFFF;stroke-width:6;stroke-miterlimit:10;}
	.st10{fill:#020202;}
	.st11{fill-rule:evenodd;clip-rule:evenodd;fill:#FFFFFF;}
	.st12{font-family:'CopperplateGothic-Bold';}
	.st13{font-size:28.6544px;}
	.st14{font-size:22.9602px;}
	.st15{fill:#5D5D5D;}
</style>
<g id="Layer_1">
	<g>
		<path class="st0" d="M101.3,35.6c-25.3,0-45.8,20.5-45.8,45.8c0,0.5,0,1.1,0,1.6h4c0-0.5,0-1.1,0-1.6c0-11.2,4.3-21.6,12.2-29.5
			c7.9-7.9,18.4-12.2,29.5-12.2c11.2,0,21.6,4.3,29.5,12.2c7.9,7.9,12.2,18.4,12.2,29.5c0,0.5,0,1.1,0,1.6h4c0-0.5,0-1.1,0-1.6
			C147,56.1,126.5,35.6,101.3,35.6"/>
		<path class="st0" d="M75.2,41.4c1.4-0.9,2.9-1.8,4.5-2.6l-2.3-4.1c-0.5-0.8-1.5-1.1-2.3-0.6L73.5,35c-0.8,0.5-1.1,1.5-0.6,2.3
			L75.2,41.4z"/>
		<path class="st0" d="M97.2,25.7h1.5v3.9c0.8,0.2,1.7,0.3,2.6,0.3c0.9,0,1.7-0.1,2.6-0.3v-3.9h1.5c1.4,0,2.5-1.1,2.5-2.5v-1.8
			c0-1.4-1.1-2.5-2.5-2.5h-8.1c-1.4,0-2.5,1.1-2.5,2.5v1.8C94.6,24.5,95.8,25.7,97.2,25.7"/>
		<path class="st0" d="M101.3,1.9L101.3,1.9c8.2,0,14.9,6.7,14.9,14.9c0,8.2-6.7,14.9-14.9,14.9c-8.2,0-14.9-6.7-14.9-14.9
			C86.3,8.6,93,1.9,101.3,1.9 M101.3,33.7c9.3,0,16.8-7.5,16.8-16.8c0-9.3-7.5-16.8-16.8-16.8C92,0,84.4,7.5,84.4,16.8
			C84.4,26.1,92,33.7,101.3,33.7z"/>
		<path class="st0" d="M101.3,55.1c0.5,0,0.8-0.4,0.8-0.8V42.7c0-0.5-0.4-0.8-0.8-0.8c-0.5,0-0.8,0.4-0.8,0.8v11.5
			C100.4,54.7,100.8,55.1,101.3,55.1"/>
		<path class="st0" d="M82.7,47.5c-0.2-0.4-0.7-0.5-1.1-0.3c-0.4,0.2-0.5,0.7-0.3,1.1l5.7,10c0.2,0.4,0.7,0.5,1.1,0.3
			c0.4-0.2,0.5-0.7,0.3-1.1L82.7,47.5z"/>
		<path class="st0" d="M78.2,67.1l-10-5.7c-0.4-0.2-0.9-0.1-1.1,0.3c-0.2,0.4-0.1,0.9,0.3,1.1l10,5.7c0.4,0.2,0.9,0.1,1.1-0.3
			C78.7,67.8,78.6,67.3,78.2,67.1"/>
		<path class="st0" d="M74.9,81.4c0-0.5-0.4-0.8-0.8-0.8H62.6c-0.5,0-0.8,0.4-0.8,0.8c0,0.5,0.4,0.8,0.8,0.8h11.5
			C74.6,82.2,74.9,81.8,74.9,81.4"/>
		<path class="st0" d="M139.9,80.5h-11.5c-0.5,0-0.8,0.4-0.8,0.8c0,0.5,0.4,0.8,0.8,0.8h11.5c0.5,0,0.8-0.4,0.8-0.8
			C140.7,80.9,140.4,80.5,139.9,80.5"/>
		<path class="st0" d="M125.2,68.5l10-5.7c0.4-0.2,0.5-0.7,0.3-1.1c-0.2-0.4-0.7-0.5-1.1-0.3l-10,5.7c-0.4,0.2-0.5,0.7-0.3,1.1
			C124.3,68.6,124.8,68.8,125.2,68.5"/>
		<path class="st0" d="M121,47.2c-0.4-0.2-0.9-0.1-1.1,0.3l-5.7,10c-0.2,0.4-0.1,0.9,0.3,1.1c0.4,0.2,0.9,0.1,1.1-0.3l5.7-10
			C121.5,47.9,121.4,47.4,121,47.2"/>
		<path class="st0" d="M129.7,37.3c0.5-0.8,0.2-1.8-0.6-2.3l-1.6-0.9c-0.8-0.5-1.8-0.2-2.3,0.6l-2.3,4.1c1.5,0.8,3,1.6,4.5,2.6
			L129.7,37.3z"/>
		<path class="st0" d="M99.8,74.4c0.2-0.1,0.5-0.1,0.7-0.1l-6.2-27.6c-0.1-0.2-0.3-0.4-0.5-0.3l0,0c-0.2,0.1-0.4,0.3-0.3,0.5
			l5.7,27.7C99.3,74.5,99.5,74.4,99.8,74.4"/>
		<path class="st0" d="M100.2,76.2c-2.8,0.6-4.7,3.4-4,6.3c0,0.2,0.1,0.4,0.1,0.5h10c0.3-0.9,0.3-1.8,0.1-2.7
			C105.8,77.4,103,75.6,100.2,76.2"/>
		<text transform="matrix(1 0 0 1 4.882812e-04 108.7283)" class="st0 st12 st13">MINUTEMAN</text>
		<text transform="matrix(1 0 0 1 64.7959 129.2537)" class="st0 st12 st14">V </text>
		<text transform="matrix(1 0 0 1 92.6919 129.2537)" class="st0 st12 st14">S </text>
		<text transform="matrix(1 0 0 1 119.4434 129.2537)" class="st0 st12 st14">C</text>
		<rect x="85.6" y="120.1" class="st11" width="3" height="3"/>
		<rect x="112.5" y="120.1" class="st11" width="3" height="3"/>
	</g>
</g>
<g id="Layer_2">
</g>
<g id="Layer_3">
</g>
<g id="Layer_4">
</g>
<g id="Layer_5">
</g>
</svg>
